# xmcd
#
# Track frame offsets:
#	150
#	10370
#	21217
#	28870
#	37087
#	45330
#	54275
#	63330
#	74620
#	84047
#	93735
#	104435
#	114595
#	116977
#	118430
#	119852
#	131230
#	140110
#	147247
#	158090
#	178595
#	194190
#	206262
#	219140
#	232607
#	245877
#	258227
#	265842
#	281075
#	295862
#	307477
#	317725
#	329585
#
# Disc length: 4537 seconds
#
# Revision: 0
# Processed by: cddbd v1.5.2PL0 Copyright (c) Steve Scherf et al.
# Submitted via: audiograbber 1.83.01
#
DISCID=0f11b721
DTITLE=Bill Haley and His Comets - Bill Haley and His Comets - The Warner Brothers 
DTITLE=Years And More - CD 6
DYEAR=1960
DGENRE=Rock
TTITLE0=Happy Homer (take 1)
TTITLE1=Love Letters In The Sand (take 1)
TTITLE2=Hot To Trot (take 9)
TTITLE3=Hot To Trot (overdub take 1)
TTITLE4=Hot To Trot (overdub take 5)
TTITLE5=Anytime (take 1)
TTITLE6=Singing The Blues (take 1)
TTITLE7=Detour (take 2)
TTITLE8=One Has My Name, The Other Has My Heart (take 1)
TTITLE9=No Letter Today (take 1)
TTITLE10=Hawk (take 2)
TTITLE11=Chick Safari (take )
TTITLE12=Chick Safari (take 4/false start)
TTITLE13=Chick Safari (take 6/false start)
TTITLE14=Chick safari (take 7/false start)
TTITLE15=Chick Safari (take 9)
TTITLE16=So Right Tonight (take 2)
TTITLE17=So Right Tonight (take 5)
TTITLE18=Let The Good Times Roll, Creole (take 1)
TTITLE19=Tenor Man (take 1)
TTITLE20=Tenor Man (take 3)
TTITLE21=Tenor Man (take 5)
TTITLE22=Tenor Man (take 6)
TTITLE23=Dance Around The Clock
TTITLE24=Midnight In Washington (instrumental) (alt 1)
TTITLE25=Midnight In Washington (instrumental) (alt 2)
TTITLE26=Tandy (take 2)
TTITLE27=You're To Much (take 2)
TTITLE28=One Phone Call
TTITLE29=Way Down In The Bottom Of My Heart
TTITLE30=Trouble In Mind
TTITLE31=Caldonia (1)
TTITLE32=Caldonia (2)
EXTD=
EXTT0=
EXTT1=
EXTT2=
EXTT3=
EXTT4=
EXTT5=
EXTT6=
EXTT7=
EXTT8=
EXTT9=
EXTT10=
EXTT11=
EXTT12=
EXTT13=
EXTT14=
EXTT15=
EXTT16=
EXTT17=
EXTT18=
EXTT19=
EXTT20=
EXTT21=
EXTT22=
EXTT23=
EXTT24=
EXTT25=
EXTT26=
EXTT27=
EXTT28=
EXTT29=
EXTT30=
EXTT31=
EXTT32=
PLAYORDER=
